<svg width="26" height="26" viewBox="0 0 26 26" fill="none" xmlns="http://www.w3.org/2000/svg">
<path d="M9.7499 19.2291C9.30573 19.2291 8.9374 18.8608 8.9374 18.4166V13.8774L8.1574 14.6574C7.84323 14.9716 7.32323 14.9716 7.00906 14.6574C6.6949 14.3433 6.6949 13.8233 7.00906 13.5091L9.17573 11.3424C9.40323 11.1149 9.76073 11.0391 10.0641 11.1691C10.3674 11.2883 10.5624 11.5916 10.5624 11.9166V18.4166C10.5624 18.8608 10.1941 19.2291 9.7499 19.2291Z" fill="#4E4E4E"/>
<path d="M11.9169 14.8959C11.7111 14.8959 11.5052 14.8201 11.3427 14.6576L9.17605 12.4909C8.86189 12.1767 8.86189 11.6567 9.17605 11.3426C9.49022 11.0284 10.0102 11.0284 10.3244 11.3426L12.4911 13.5092C12.8052 13.8234 12.8052 14.3434 12.4911 14.6576C12.3286 14.8201 12.1227 14.8959 11.9169 14.8959Z" fill="#4E4E4E"/>
<path d="M16.2498 24.6458H9.74984C3.86734 24.6458 1.354 22.1325 1.354 16.25V9.74996C1.354 3.86746 3.86734 1.35413 9.74984 1.35413H15.1665C15.6107 1.35413 15.979 1.72246 15.979 2.16663C15.979 2.61079 15.6107 2.97913 15.1665 2.97913H9.74984C4.75567 2.97913 2.979 4.75579 2.979 9.74996V16.25C2.979 21.2441 4.75567 23.0208 9.74984 23.0208H16.2498C21.244 23.0208 23.0207 21.2441 23.0207 16.25V10.8333C23.0207 10.3891 23.389 10.0208 23.8332 10.0208C24.2773 10.0208 24.6457 10.3891 24.6457 10.8333V16.25C24.6457 22.1325 22.1323 24.6458 16.2498 24.6458Z" fill="#4E4E4E"/>
<path d="M23.8332 11.6458H19.4998C15.7948 11.6458 14.354 10.2049 14.354 6.49995V2.16661C14.354 1.84161 14.549 1.53828 14.8523 1.41911C15.1557 1.28911 15.5023 1.36495 15.7407 1.59245L24.4073 10.2591C24.6348 10.4866 24.7107 10.8441 24.5807 11.1474C24.4507 11.4508 24.1582 11.6458 23.8332 11.6458ZM15.979 4.12745V6.49995C15.979 9.29495 16.7048 10.0208 19.4998 10.0208H21.8723L15.979 4.12745Z" fill="#4E4E4E"/>
</svg>
