<svg width="26" height="26" viewBox="0 0 26 26" fill="none" xmlns="http://www.w3.org/2000/svg">
<path d="M9.75002 19.2291C9.30585 19.2291 8.93752 18.8608 8.93752 18.4166V13.8774L8.15752 14.6574C7.84335 14.9716 7.32335 14.9716 7.00918 14.6574C6.69502 14.3433 6.69502 13.8233 7.00918 13.5091L9.17585 11.3424C9.40335 11.1149 9.76085 11.0391 10.0642 11.1691C10.3675 11.2883 10.5625 11.5916 10.5625 11.9166V18.4166C10.5625 18.8608 10.1942 19.2291 9.75002 19.2291Z" fill="white"/>
<path d="M11.9166 14.8959C11.7108 14.8959 11.505 14.8201 11.3425 14.6576L9.17581 12.4909C8.86164 12.1767 8.86164 11.6567 9.17581 11.3426C9.48998 11.0284 10.01 11.0284 10.3241 11.3426L12.4908 13.5092C12.805 13.8234 12.805 14.3434 12.4908 14.6576C12.3283 14.8201 12.1225 14.8959 11.9166 14.8959Z" fill="white"/>
<path d="M16.25 24.6458H9.74996C3.86746 24.6458 1.35413 22.1325 1.35413 16.25V9.74996C1.35413 3.86746 3.86746 1.35413 9.74996 1.35413H15.1666C15.6108 1.35413 15.9791 1.72246 15.9791 2.16663C15.9791 2.61079 15.6108 2.97913 15.1666 2.97913H9.74996C4.75579 2.97913 2.97913 4.75579 2.97913 9.74996V16.25C2.97913 21.2441 4.75579 23.0208 9.74996 23.0208H16.25C21.2441 23.0208 23.0208 21.2441 23.0208 16.25V10.8333C23.0208 10.3891 23.3891 10.0208 23.8333 10.0208C24.2775 10.0208 24.6458 10.3891 24.6458 10.8333V16.25C24.6458 22.1325 22.1325 24.6458 16.25 24.6458Z" fill="white"/>
<path d="M23.8333 11.6458H19.5C15.795 11.6458 14.3541 10.2049 14.3541 6.49995V2.16661C14.3541 1.84161 14.5491 1.53828 14.8525 1.41911C15.1558 1.28911 15.5025 1.36495 15.7408 1.59245L24.4075 10.2591C24.635 10.4866 24.7108 10.8441 24.5808 11.1474C24.4508 11.4508 24.1583 11.6458 23.8333 11.6458ZM15.9791 4.12745V6.49995C15.9791 9.29495 16.705 10.0208 19.5 10.0208H21.8725L15.9791 4.12745Z" fill="white"/>
</svg>
