<svg width="26" height="26" viewBox="0 0 26 26" fill="none" xmlns="http://www.w3.org/2000/svg">
<path d="M17.3333 24.6458H8.66667C4.7125 24.6458 2.4375 22.3708 2.4375 18.4166V7.58329C2.4375 3.62913 4.7125 1.35413 8.66667 1.35413H17.3333C21.2875 1.35413 23.5625 3.62913 23.5625 7.58329V18.4166C23.5625 22.3708 21.2875 24.6458 17.3333 24.6458ZM8.66667 2.97913C5.56833 2.97913 4.0625 4.48496 4.0625 7.58329V18.4166C4.0625 21.515 5.56833 23.0208 8.66667 23.0208H17.3333C20.4317 23.0208 21.9375 21.515 21.9375 18.4166V7.58329C21.9375 4.48496 20.4317 2.97913 17.3333 2.97913H8.66667Z" fill="white"/>
<path d="M9.75016 12.0358C9.566 12.0358 9.38183 12.0033 9.2085 11.9275C8.71016 11.7108 8.396 11.2233 8.396 10.6925V2.16663C8.396 1.72246 8.76433 1.35413 9.2085 1.35413H16.7918C17.236 1.35413 17.6043 1.72246 17.6043 2.16663V10.6816C17.6043 11.2233 17.2902 11.7108 16.7918 11.9166C16.3043 12.1333 15.7302 12.0358 15.3294 11.6675L13.0002 9.53328L10.671 11.6783C10.411 11.9167 10.086 12.0358 9.75016 12.0358ZM13.0002 7.81082C13.3252 7.81082 13.661 7.92994 13.921 8.16827L15.9793 10.0641V2.97913H10.021V10.0641L12.0794 8.16827C12.3394 7.92994 12.6752 7.81082 13.0002 7.81082Z" fill="white"/>
<path d="M18.9582 15.9791H14.354C13.9098 15.9791 13.5415 15.6108 13.5415 15.1666C13.5415 14.7225 13.9098 14.3541 14.354 14.3541H18.9582C19.4023 14.3541 19.7707 14.7225 19.7707 15.1666C19.7707 15.6108 19.4023 15.9791 18.9582 15.9791Z" fill="white"/>
<path d="M18.9583 20.3125H9.75C9.30583 20.3125 8.9375 19.9442 8.9375 19.5C8.9375 19.0558 9.30583 18.6875 9.75 18.6875H18.9583C19.4025 18.6875 19.7708 19.0558 19.7708 19.5C19.7708 19.9442 19.4025 20.3125 18.9583 20.3125Z" fill="white"/>
</svg>
