<svg width="26" height="26" viewBox="0 0 26 26" fill="none" xmlns="http://www.w3.org/2000/svg">
<path d="M18.8938 16.6509C18.6879 16.6509 18.4821 16.5751 18.3196 16.4126C18.0054 16.0984 18.0054 15.5784 18.3196 15.2642L20.5188 13.0651L18.3196 10.8659C18.0054 10.5517 18.0054 10.0317 18.3196 9.71756C18.6338 9.40339 19.1538 9.40339 19.4679 9.71756L22.2413 12.4909C22.5554 12.8051 22.5554 13.3251 22.2413 13.6392L19.4679 16.4126C19.3054 16.5751 19.0996 16.6509 18.8938 16.6509Z" fill="#C10202"/>
<path d="M21.5907 13.8774H10.5732C10.1291 13.8774 9.76074 13.5091 9.76074 13.0649C9.76074 12.6208 10.1291 12.2524 10.5732 12.2524H21.5907C22.0349 12.2524 22.4032 12.6208 22.4032 13.0649C22.4032 13.5091 22.0349 13.8774 21.5907 13.8774Z" fill="#C10202"/>
<path d="M12.7399 22.4792C7.16074 22.4792 3.26074 18.5792 3.26074 13C3.26074 7.42087 7.16074 3.52087 12.7399 3.52087C13.1841 3.52087 13.5524 3.88921 13.5524 4.33337C13.5524 4.77754 13.1841 5.14587 12.7399 5.14587C8.11408 5.14587 4.88574 8.37421 4.88574 13C4.88574 17.6259 8.11408 20.8542 12.7399 20.8542C13.1841 20.8542 13.5524 21.2225 13.5524 21.6667C13.5524 22.1109 13.1841 22.4792 12.7399 22.4792Z" fill="#C10202"/>
</svg>
