<svg width="26" height="26" viewBox="0 0 26 26" fill="none" xmlns="http://www.w3.org/2000/svg">
<path d="M13.1729 12.5883C13.1404 12.5883 13.1187 12.5883 13.0862 12.5883C13.0321 12.5775 12.9562 12.5775 12.8912 12.5883C9.74957 12.4908 7.37708 10.0208 7.37708 6.97663C7.37708 3.87829 9.90124 1.35413 12.9996 1.35413C16.0979 1.35413 18.6221 3.87829 18.6221 6.97663C18.6112 10.0208 16.2279 12.4908 13.2054 12.5883C13.1946 12.5883 13.1837 12.5883 13.1729 12.5883ZM12.9996 2.97913C10.8004 2.97913 9.00208 4.77746 9.00208 6.97663C9.00208 9.14329 10.6921 10.8875 12.8479 10.9633C12.9021 10.9525 13.0537 10.9525 13.1946 10.9633C15.3179 10.8658 16.9862 9.12163 16.9971 6.97663C16.9971 4.77746 15.1987 2.97913 12.9996 2.97913Z" fill="#4E4E4E"/>
<path d="M13.1837 24.4292C11.0604 24.4292 8.92624 23.8875 7.31208 22.8042C5.80624 21.8075 4.98291 20.4425 4.98291 18.9584C4.98291 17.4742 5.80624 16.0984 7.31208 15.0909C10.5621 12.935 15.8271 12.935 19.0554 15.0909C20.5504 16.0875 21.3846 17.4525 21.3846 18.9367C21.3846 20.4209 20.5612 21.7967 19.0554 22.8042C17.4304 23.8875 15.3071 24.4292 13.1837 24.4292ZM8.21124 16.4559C7.17124 17.1492 6.60791 18.0375 6.60791 18.9692C6.60791 19.89 7.18208 20.7784 8.21124 21.4609C10.9087 23.27 15.4587 23.27 18.1562 21.4609C19.1962 20.7675 19.7596 19.8792 19.7596 18.9475C19.7596 18.0267 19.1854 17.1384 18.1562 16.4559C15.4587 14.6575 10.9087 14.6575 8.21124 16.4559Z" fill="#4E4E4E"/>
</svg>
