<svg width="26" height="26" viewBox="0 0 26 26" fill="none" xmlns="http://www.w3.org/2000/svg">
<path d="M13 14.8959C12.5558 14.8959 12.1875 14.5275 12.1875 14.0834V8.39587C12.1875 7.95171 12.5558 7.58337 13 7.58337C13.4442 7.58337 13.8125 7.95171 13.8125 8.39587V14.0834C13.8125 14.5275 13.4442 14.8959 13 14.8959Z" fill="#4E4E4E"/>
<path d="M13 18.6875C12.7075 18.6875 12.4366 18.5791 12.2308 18.3733C12.1333 18.265 12.0575 18.1458 11.9925 18.0158C11.9383 17.8858 11.9166 17.745 11.9166 17.6041C11.9166 17.3225 12.0358 17.0408 12.2308 16.8349C12.6316 16.4341 13.3683 16.4341 13.7691 16.8349C13.9641 17.0408 14.0833 17.3225 14.0833 17.6041C14.0833 17.745 14.0508 17.8858 13.9966 18.0158C13.9424 18.1458 13.8666 18.265 13.7691 18.3733C13.5633 18.5791 13.2925 18.6875 13 18.6875Z" fill="#4E4E4E"/>
<path d="M13.0002 24.6458C12.2744 24.6458 11.5377 24.4616 10.8877 24.0825L4.45272 20.3666C3.15272 19.6083 2.34021 18.2108 2.34021 16.705V9.295C2.34021 7.78917 3.15272 6.39166 4.45272 5.63333L10.8877 1.9175C12.1877 1.15917 13.8019 1.15917 15.1128 1.9175L21.5478 5.63333C22.8478 6.39166 23.6603 7.78917 23.6603 9.295V16.705C23.6603 18.2108 22.8478 19.6083 21.5478 20.3666L15.1128 24.0825C14.4628 24.4616 13.7261 24.6458 13.0002 24.6458ZM13.0002 2.97915C12.5561 2.97915 12.1011 3.09833 11.7002 3.32583L5.26522 7.04165C4.46356 7.50748 3.96521 8.36334 3.96521 9.295V16.705C3.96521 17.6258 4.46356 18.4925 5.26522 18.9583L11.7002 22.6741C12.5019 23.14 13.4986 23.14 14.2894 22.6741L20.7244 18.9583C21.5261 18.4925 22.0244 17.6366 22.0244 16.705V9.295C22.0244 8.37417 21.5261 7.50748 20.7244 7.04165L14.2894 3.32583C13.8994 3.09833 13.4444 2.97915 13.0002 2.97915Z" fill="#4E4E4E"/>
</svg>
