<svg width="26" height="26" viewBox="0 0 26 26" fill="none" xmlns="http://www.w3.org/2000/svg">
<path d="M13 14.8959C12.5558 14.8959 12.1875 14.5275 12.1875 14.0834V8.39587C12.1875 7.95171 12.5558 7.58337 13 7.58337C13.4442 7.58337 13.8125 7.95171 13.8125 8.39587V14.0834C13.8125 14.5275 13.4442 14.8959 13 14.8959Z" fill="white"/>
<path d="M13.0003 18.6875C12.7078 18.6875 12.437 18.5791 12.2311 18.3733C12.1336 18.265 12.0578 18.1458 11.9928 18.0158C11.9387 17.8858 11.917 17.745 11.917 17.6041C11.917 17.3225 12.0361 17.0408 12.2311 16.8349C12.632 16.4341 13.3687 16.4341 13.7695 16.8349C13.9645 17.0408 14.0837 17.3225 14.0837 17.6041C14.0837 17.745 14.0511 17.8858 13.997 18.0158C13.9428 18.1458 13.867 18.265 13.7695 18.3733C13.5637 18.5791 13.2928 18.6875 13.0003 18.6875Z" fill="white"/>
<path d="M12.9999 24.6458C12.274 24.6458 11.5374 24.4616 10.8874 24.0825L4.45236 20.3666C3.15236 19.6083 2.33984 18.2108 2.33984 16.705V9.295C2.33984 7.78917 3.15236 6.39166 4.45236 5.63333L10.8874 1.9175C12.1874 1.15917 13.8016 1.15917 15.1124 1.9175L21.5474 5.63333C22.8474 6.39166 23.6599 7.78917 23.6599 9.295V16.705C23.6599 18.2108 22.8474 19.6083 21.5474 20.3666L15.1124 24.0825C14.4624 24.4616 13.7257 24.6458 12.9999 24.6458ZM12.9999 2.97915C12.5557 2.97915 12.1007 3.09833 11.6999 3.32583L5.26486 7.04165C4.46319 7.50748 3.96484 8.36334 3.96484 9.295V16.705C3.96484 17.6258 4.46319 18.4925 5.26486 18.9583L11.6999 22.6741C12.5015 23.14 13.4982 23.14 14.289 22.6741L20.724 18.9583C21.5257 18.4925 22.0241 17.6366 22.0241 16.705V9.295C22.0241 8.37417 21.5257 7.50748 20.724 7.04165L14.289 3.32583C13.899 3.09833 13.444 2.97915 12.9999 2.97915Z" fill="white"/>
</svg>
